<svg version="1.1" viewBox="0.0 0.0 213.89238845144357 185.79265091863516" fill="none" stroke="none" stroke-linecap="square" stroke-miterlimit="10" xmlns:xlink="http://www.w3.org/1999/xlink" xmlns="http://www.w3.org/2000/svg"><clipPath id="p.0"><path d="m0 0l213.8924 0l0 185.79265l-213.8924 0l0 -185.79265z" clip-rule="nonzero"/></clipPath><g clip-path="url(#p.0)"><path fill="#000000" fill-opacity="0.0" d="m0 0l213.8924 0l0 185.79265l-213.8924 0z" fill-rule="evenodd"/><path fill="#a2c4c9" d="m0 0l214.4252 0l0 186.89764l-214.4252 0z" fill-rule="evenodd"/><path fill="#ffffff" d="m65.0251 64.45381q0 -1.125 0.125 -3.34375q0.125 -2.21875 0.125 -3.03125q0 -0.3125 -0.125 -2.25q-0.125 -1.9375 -0.125 -3.375q0 -6.625 1.25 -6.625q0.5 0 0.875 0.125q13.0625 0 38.71875 -0.3125q25.65625 -0.3125 38.40625 -0.3125q3.1875 0 4.03125 0.5625q0.84375 0.5625 0.84375 2.1875l0 1.75q0 3.25 0.0625 9.59375q0.0625 6.34375 0.0625 9.65625q0 3.25 -1.75 3.25q-3.5 0 -10.4375 -0.125q-6.9375 -0.125 -10.4375 -0.125l0 67.0q-0.4375 1.875 -2.125 2.0q-2.1875 0 -6.375 -0.0625q-4.1875 -0.0625 -6.375 -0.0625q-0.125 0 -0.25 0.125q-2.75 0 -7.71875 -0.0625q-4.96875 -0.0625 -7.40625 -0.0625l-3.75 0q-1.25 0.125 -3.625 0.125l-2.5 -3.0q0 -9.5 0.625 -28.25q0.625 -18.75 0.625 -28.25q0 -0.4375 -0.03125 -1.4375q-0.03125 -1.0 -0.03125 -1.625q0 -0.625 -0.09375 -1.5625q-0.09375 -0.9375 -0.3125 -1.53125q-0.21875 -0.59375 -0.53125 -1.1875q-0.3125 -0.59375 -0.84375 -0.875q-0.53125 -0.28125 -1.28125 -0.28125l-17.875 0q-1.75 -0.5 -1.75 -8.625z" fill-rule="nonzero"/></g></svg>